<?xml version="1.0" encoding="utf-8"?><!DOCTYPE svg PUBLIC "-//W3C//DTD SVG 1.1//EN" "http://www.w3.org/Graphics/SVG/1.1/DTD/svg11.dtd"><svg version="1.1" xmlns="http://www.w3.org/2000/svg" xmlns:xlink="http://www.w3.org/1999/xlink" width="32" height="32" viewBox="0 0 32 32" data-code="59909" data-tags="point-down,finger,direction,hand"><g fill="#444" transform="scale(0.03125 0.03125)"><path d="M960 416v160c0 52.934-43.066 96-96 96-17.104 0-33.176-4.494-47.098-12.368-17.076 26.662-46.96 44.368-80.902 44.368-24.564 0-47.004-9.276-64-24.504-16.996 15.228-39.436 24.504-64 24.504-11.214 0-21.986-1.934-32-5.484v229.484c0 52.934-43.066 96-96 96-52.936 0-96-43.066-96-96v-394.676l-176.018 93.836c-14.538 8.398-31.126 12.84-47.982 12.84-52.936 0-96-43.066-96-96 0-26.368 10.472-50.952 29.488-69.226 0.248-0.238 0.496-0.47 0.75-0.7l239.17-218.074h-45.408c-17.674 0-32-14.326-32-32v-192c0-17.674 14.326-32 32-32h640c17.674 0 32 14.326 32 32v192c0 17.674-14.326 32-32 32h-44.222l72.842 145.69c2.224 4.442 3.38 9.342 3.38 14.31zM896 160c0-17.674-14.326-32-32-32s-32 14.326-32 32 14.326 32 32 32 32-14.326 32-32zM896 423.554l-83.778-167.554h-383.824l-290.82 265.168c-6.18 6.066-9.578 14.162-9.578 22.832 0 17.644 14.356 32 32 32 5.458 0 10.612-1.308 15.324-3.894 0.53-0.324 1.070-0.632 1.622-0.926l224-119.416c9.92-5.288 21.884-4.986 31.52 0.8 9.638 5.782 15.534 16.196 15.534 27.436v448c0 17.644 14.356 32 32 32s32-14.356 32-32v-320c0-17.672 14.326-32 32-32s32 14.328 32 32c0 17.644 14.356 32 32 32s32-14.356 32-32c0-17.674 14.326-32 32-32s32 14.326 32 32c0 17.644 14.356 32 32 32s32-14.356 32-32v-32c0-17.674 14.326-32 32-32s32 14.326 32 32c0 17.644 14.356 32 32 32s32-14.356 32-32v-152.446z" /></g></svg>